<?xml version="1.0" encoding="UTF-8"?>
<svg id="Layer_2" data-name="Layer 2" xmlns="http://www.w3.org/2000/svg" viewBox="0 0 190.1 190.1">
  <defs>
    <style>
      .cls-1 {
        fill: #018d43;
      }
    </style>
  </defs>
  <g id="Layer_1-2" data-name="Layer 1">
    <path class="cls-1" d="M7.92,182.18h71.29v7.92H0V19.8C0,8.88,8.88,0,19.8,0h87.13c10.92,0,19.8,8.88,19.8,19.8v59.81c-2.8.4-5.46,1.2-7.92,2.38V19.8c0-6.55-5.33-11.88-11.88-11.88H19.8c-6.55,0-11.88,5.33-11.88,11.88v162.37ZM55.44,102.97h-23.76v7.92h23.76v-7.92ZM31.68,142.57h23.76v-7.92h-23.76v7.92ZM55.44,39.6h-23.76v7.92h23.76v-7.92ZM95.05,39.6h-23.76v7.92h23.76v-7.92ZM55.44,71.29h-23.76v7.92h23.76v-7.92ZM71.29,79.21h23.76v-7.92h-23.76v7.92ZM190.1,126.73v63.37h-95.05v-63.37c0-8.74,7.1-15.84,15.84-15.84h7.92v-3.96c0-6.55,5.33-11.88,11.88-11.88h23.76c6.55,0,11.88,5.33,11.88,11.88v3.96h7.92c8.74,0,15.84,7.1,15.84,15.84ZM126.73,110.89h31.68v-3.96c0-2.18-1.78-3.96-3.96-3.96h-23.76c-2.18,0-3.96,1.78-3.96,3.96v3.96ZM102.97,126.73v15.84h79.21v-15.84c0-4.37-3.55-7.92-7.92-7.92h-63.37c-4.37,0-7.92,3.55-7.92,7.92ZM182.18,182.18v-31.68h-35.64v15.84h-7.92v-15.84h-35.64v31.68h79.21ZM71.29,110.89h12.32c1.75-2.99,3.94-5.66,6.54-7.92h-18.87v7.92Z"/>
  </g>
</svg>