<?xml version="1.0" encoding="UTF-8"?>
<svg id="Layer_2" data-name="Layer 2" xmlns="http://www.w3.org/2000/svg" viewBox="0 0 187.49 187.5">
  <defs>
    <style>
      .cls-1 {
        fill: #018d43;
      }
    </style>
  </defs>
  <g id="Layer_1-2" data-name="Layer 1">
    <path class="cls-1" d="M109.37,85.93v-46.87c0-12.92-10.51-23.44-23.44-23.44h-46.87c-12.92,0-23.44,10.51-23.44,23.44v109.37c0,12.92,10.51,23.44,23.44,23.44h46.87c4.32,0,7.81,3.5,7.81,7.81s-3.49,7.81-7.81,7.81h-46.87c-21.54,0-39.06-17.52-39.06-39.06V39.06C0,17.52,17.52,0,39.06,0h46.87c21.54,0,39.06,17.52,39.06,39.06v46.87c0,4.31-3.49,7.81-7.81,7.81s-7.81-3.5-7.81-7.81ZM46.87,101.55h-7.81c-4.32,0-7.81,3.5-7.81,7.81s3.49,7.81,7.81,7.81h7.81c4.32,0,7.81-3.5,7.81-7.81s-3.49-7.81-7.81-7.81ZM85.93,101.55h-7.81c-4.32,0-7.81,3.5-7.81,7.81s3.49,7.81,7.81,7.81h7.81c4.32,0,7.81-3.5,7.81-7.81s-3.49-7.81-7.81-7.81ZM46.87,132.8h-7.81c-4.32,0-7.81,3.5-7.81,7.81s3.49,7.81,7.81,7.81h7.81c4.32,0,7.81-3.5,7.81-7.81s-3.49-7.81-7.81-7.81ZM85.93,132.8h-7.81c-4.32,0-7.81,3.5-7.81,7.81s3.49,7.81,7.81,7.81h7.81c4.32,0,7.81-3.5,7.81-7.81s-3.49-7.81-7.81-7.81ZM62.49,78.12c4.32,0,7.81-3.5,7.81-7.81v-7.81h7.81c4.32,0,7.81-3.5,7.81-7.81s-3.49-7.81-7.81-7.81h-7.81v-7.81c0-4.31-3.49-7.81-7.81-7.81s-7.81,3.5-7.81,7.81v7.81h-7.81c-4.32,0-7.81,3.5-7.81,7.81s3.49,7.81,7.81,7.81h7.81v7.81c0,4.31,3.49,7.81,7.81,7.81ZM148.42,140.61c10.79,0,19.53-8.74,19.53-19.53s-8.74-19.53-19.53-19.53-19.53,8.74-19.53,19.53,8.74,19.53,19.53,19.53ZM187.24,177.73c-4.38-16.98-20.69-29.29-38.82-29.29s-34.45,12.33-38.82,29.3c-1.08,4.18,1.45,8.44,5.62,9.51.66.16,1.3.25,1.95.25,3.48,0,6.66-2.34,7.56-5.87,2.57-10.01,12.76-17.57,23.68-17.57s21.1,7.55,23.68,17.58c1.08,4.18,5.39,6.69,9.51,5.62,4.18-1.08,6.69-5.34,5.62-9.51v-.02Z"/>
  </g>
</svg>