<?xml version="1.0" encoding="UTF-8"?>
<svg id="Layer_2" data-name="Layer 2" xmlns="http://www.w3.org/2000/svg" viewBox="0 0 197.31 197.3">
  <defs>
    <style>
      .cls-1 {
        fill: #018d43;
      }
    </style>
  </defs>
  <g id="Layer_1-2" data-name="Layer 1">
    <path class="cls-1" d="M10.96,59.68C3.71,46.35-.06,31.39,0,16.21,0,7.37,7.16.19,16.01.19c4.25,0,8.33,1.69,11.34,4.7l42.34,45.13c-2.57,5.42-3.92,11.34-3.95,17.35,0,.93.21,1.83.26,2.75L16.44,17.27c.1,12.05,3.16,23.89,8.9,34.48,9.45,18.16,21.85,34.63,36.71,48.73l-11.63,11.67c-16.03-15.12-29.38-32.87-39.46-52.47ZM106.07,126.21l-12.69,12.7c13.96,6.29,29.25,9.03,44.52,7.99l47.25,50.22,11.97-11.26-53.2-56.72c-12.64,2.71-25.79,1.69-37.86-2.93ZM112.6,108.05c9.63,9.61,25.22,9.61,34.85,0l49.86-49.91-11.59-11.63-49.86,49.92c-3.21,3.21-8.41,3.21-11.62,0l-5.83-5.81,55.68-55.73-11.62-11.63-55.67,55.74-5.8-5.81c-3.21-3.21-3.22-8.41,0-11.63,0,0,0,0,0,0l49.86-49.92-11.62-11.62-49.86,49.92c-9.61,9.64-9.61,25.24,0,34.88l5.8,5.81L.2,185.68l11.62,11.62,94.98-95.07,5.8,5.81Z"/>
  </g>
</svg>