<?xml version="1.0" encoding="UTF-8"?>
<svg id="Layer_2" data-name="Layer 2" xmlns="http://www.w3.org/2000/svg" viewBox="0 0 213.65 213.65">
  <defs>
    <style>
      .cls-1 {
        fill: #018d43;
      }
    </style>
  </defs>
  <g id="Layer_1-2" data-name="Layer 1">
    <path class="cls-1" d="M204.48,55.65c-5.67-3.15-12.6-2.95-18.69.9l-43.35,32.48v-17.81c0-6.47-3.52-12.44-9.17-15.57-5.67-3.15-12.61-2.95-18.69.9l-43.35,32.48V17.8c4.92,0,8.9-3.99,8.9-8.9s-3.98-8.9-8.9-8.9H8.9C3.98,0,0,3.99,0,8.9s3.98,8.9,8.9,8.9v151.34c0,24.54,19.97,44.51,44.51,44.51h115.73c24.54,0,44.51-19.97,44.51-44.51v-97.92c0-6.47-3.52-12.44-9.17-15.57ZM195.85,169.14c0,14.72-11.98,26.71-26.71,26.71H53.41c-14.72,0-26.71-11.98-26.71-26.71V17.8h26.71v142.43c0,4.91,3.98,8.9,8.9,8.9s8.9-3.99,8.9-8.9v-48.96l53.41-40.06v35.61c0,3.37,1.91,6.45,4.92,7.97s6.61,1.19,9.32-.84l56.97-42.73v97.92h0ZM124.63,151.34v8.9c0,4.91-3.99,8.9-8.9,8.9h-8.9c-4.91,0-8.9-3.99-8.9-8.9v-8.9c0-4.91,3.99-8.9,8.9-8.9h8.9c4.91,0,8.9,3.99,8.9,8.9ZM142.43,160.24v-8.9c0-4.91,3.99-8.9,8.9-8.9h8.9c4.91,0,8.9,3.99,8.9,8.9v8.9c0,4.91-3.99,8.9-8.9,8.9h-8.9c-4.91,0-8.9-3.99-8.9-8.9Z"/>
  </g>
</svg>