<?xml version="1.0" encoding="UTF-8"?>
<svg id="Layer_2" data-name="Layer 2" xmlns="http://www.w3.org/2000/svg" viewBox="0 0 190.1 190.13">
  <defs>
    <style>
      .cls-1 {
        fill: #018d43;
      }
    </style>
  </defs>
  <g id="Layer_1-2" data-name="Layer 1">
    <path class="cls-1" d="M174.26,44.74v-24.9c0-6.57-5.31-11.88-11.88-11.88s-11.88,5.31-11.88,11.88v8.63l-31.08-20.97c-14.8-9.99-33.93-9.98-48.73,0L19.2,42.23C7.18,50.34,0,63.84,0,78.34v68.23c0,24.02,19.54,43.56,43.56,43.56h102.97c24.02,0,43.56-19.54,43.56-43.56v-68.23c0-13.1-5.85-25.37-15.84-33.6ZM166.33,146.57c0,10.91-8.89,19.8-19.8,19.8h-11.88c0-21.87-17.73-39.6-39.6-39.6s-39.6,17.73-39.6,39.6h-11.88c-10.91,0-19.8-8.89-19.8-19.8v-68.23c0-6.59,3.26-12.73,8.73-16.42l51.48-34.74c3.37-2.27,7.22-3.41,11.07-3.41s7.71,1.14,11.07,3.41l51.48,34.74c5.47,3.69,8.73,9.83,8.73,16.42,0,0,0,68.23,0,68.23ZM118.81,87.16c0,13.11-10.65,23.76-23.76,23.76s-23.76-10.65-23.76-23.76,10.65-23.76,23.76-23.76,23.76,10.65,23.76,23.76Z"/>
  </g>
</svg>